<?xml version="1.0" encoding="utf-8"?>
<!-- Generator: Adobe Illustrator 24.0.1, SVG Export Plug-In . SVG Version: 6.00 Build 0)  -->
<svg version="1.1" id="Layer_1" xmlns="http://www.w3.org/2000/svg" xmlns:xlink="http://www.w3.org/1999/xlink" x="0px" y="0px"
	 viewBox="0 0 48 48" style="enable-background:new 0 0 48 48;" xml:space="preserve">
<style type="text/css">
	.st0{fill:#FFC700;}
</style>
<g>
	<circle cx="24" cy="24" r="24"/>
	<path class="st0" d="M26.5,3.4l3.7,0.9v5.1l4.1-3.3l3.2,2.3l-7.9,6.4h-3V3.4z M19.3,2.9H23v14.9h7.6l9.1-7.3l2.3,2.9l-10.2,8H19.3
		C19.3,21.6,19.3,2.9,19.3,2.9z M8.5,34.3l-3.7-3.2V17.2l3.7-3.3V34.3z M15.7,38.7l-3.7,3.2v-36l3.7,3.2V38.7z M34.4,41.7l-4.1-3.3
		v5.1l-3.7,0.9V33.1h3l7.9,6.4L34.4,41.7z M39.7,36.9l-9.1-7.3H23v14.9h-3.7V25.9h12.6L42,34L39.7,36.9z M42.7,30l-7.5-6.3l7.5-6.3
		l2.3,2.8l-4.1,3.4l4.1,3.3L42.7,30z"/>
</g>
</svg>
